<svg width="22" height="22" viewBox="0 0 22 22" fill="none" xmlns="http://www.w3.org/2000/svg">
<path d="M15.8914 0.440918H6.42562C3.20787 0.440918 0.599304 3.04948 0.599304 6.26724V15.7331C0.599304 18.9508 3.20787 21.5594 6.42562 21.5594H15.8914C19.1092 21.5594 21.7178 18.9508 21.7178 15.7331V6.26724C21.7178 3.04948 19.1092 0.440918 15.8914 0.440918ZM19.8433 15.7331C19.8433 17.9199 18.0626 19.685 15.8914 19.685H6.42562C4.2388 19.685 2.47372 17.9043 2.47372 15.7331V6.26724C2.47372 4.09604 4.25442 2.31534 6.42562 2.31534H15.8914C18.0783 2.31534 19.8433 4.09604 19.8433 6.26724V15.7331Z" fill="#8F8F8F"/>
<path d="M11.1585 5.56421C8.15946 5.56421 5.70709 8.00095 5.70709 11C5.70709 13.9991 8.14384 16.4515 11.1585 16.4515C14.1576 16.4515 16.61 14.0147 16.61 11C16.61 8.00095 14.1576 5.56421 11.1585 5.56421ZM11.1585 14.577C9.19039 14.577 7.58151 12.9838 7.58151 11.0156C7.59713 9.03189 9.19039 7.43863 11.1585 7.43863C13.1267 7.43863 14.7355 9.03189 14.7355 11C14.7355 12.9682 13.1267 14.577 11.1585 14.577Z" fill="#8F8F8F"/>
<path d="M16.8286 3.97095C16.4694 3.97095 16.1101 4.11153 15.8602 4.37707C15.6102 4.62699 15.454 4.98626 15.454 5.34552C15.454 5.70479 15.5946 6.06405 15.8602 6.31397C16.1101 6.56389 16.4694 6.7201 16.8286 6.7201C17.1879 6.7201 17.5471 6.57951 17.7971 6.31397C18.047 6.06405 18.2032 5.70479 18.2032 5.34552C18.2032 4.98626 18.0626 4.62699 17.7971 4.37707C17.5471 4.11153 17.2035 3.97095 16.8286 3.97095Z" fill="#8F8F8F"/>
</svg>
