<svg width="28" height="20" viewBox="0 0 28 20" fill="none" xmlns="http://www.w3.org/2000/svg">
<path d="M27.582 7.74423C27.582 7.21477 27.536 6.52417 27.4439 5.69546C27.3748 4.86674 27.2597 4.1301 27.1216 3.48555C26.9605 2.74891 26.6152 2.15039 26.0857 1.64395C25.5562 1.13752 24.9347 0.861277 24.2211 0.769197C22.0112 0.515978 18.6503 0.400879 14.1614 0.400879C9.67251 0.400879 6.31161 0.515978 4.1017 0.769197C3.38808 0.861277 2.76654 1.13752 2.23709 1.64395C1.70763 2.15039 1.36233 2.74891 1.20119 3.48555C1.04005 4.1301 0.947972 4.86674 0.855893 5.69546C0.786833 6.52417 0.740793 7.21477 0.717773 7.74423C0.717773 8.2967 0.717773 9.03334 0.717773 10.0002C0.717773 10.967 0.717773 11.7036 0.740793 12.2561C0.740793 12.7856 0.786833 13.4762 0.878913 14.3049C0.924953 15.1336 1.04005 15.8703 1.17817 16.5148C1.33931 17.2514 1.68461 17.85 2.21407 18.3564C2.74352 18.8628 3.36506 19.1391 4.07868 19.2312C6.28859 19.4844 9.64949 19.5995 14.1384 19.5995C18.6273 19.5995 21.9882 19.4844 24.1981 19.2312C24.9117 19.1621 25.5332 18.8628 26.0627 18.3564C26.5921 17.85 26.9374 17.2514 27.0986 16.5148C27.2597 15.8703 27.3518 15.1336 27.4439 14.3049C27.5129 13.4762 27.559 12.7856 27.582 12.2561C27.582 11.7267 27.605 10.967 27.605 10.0002C27.605 9.03334 27.605 8.2967 27.582 7.74423ZM19.479 10.8059L11.7903 15.617C11.6522 15.7091 11.4911 15.7782 11.2839 15.7782C11.1228 15.7782 10.9846 15.7321 10.8235 15.6631C10.5012 15.4789 10.3171 15.2027 10.3171 14.8113V5.21204C10.3171 4.8207 10.4782 4.54446 10.8235 4.3603C11.1688 4.17614 11.4911 4.19916 11.7903 4.38332L15.6347 6.7889L19.479 9.19448C19.7783 9.35562 19.9394 9.63186 19.9394 10.0002C19.9164 10.3685 19.7783 10.6447 19.479 10.8059Z" fill="#8F8F8F"/>
</svg>
